<?xml version="1.0" encoding="utf-8"?>
<!-- Generator: Adobe Illustrator 20.1.0, SVG Export Plug-In . SVG Version: 6.00 Build 0)  -->
<svg version="1.1" id="Layer_1" xmlns="http://www.w3.org/2000/svg" xmlns:xlink="http://www.w3.org/1999/xlink" x="0px" y="0px"
	 viewBox="0 0 100 94.7" style="enable-background:new 0 0 100 94.7;" xml:space="preserve">
<style type="text/css">
	.st0{display:none;}
	.st1{display:inline;}
	.st2{fill:#FFFFFF;}
</style>
<g class="st0">
	<rect x="-914.2" y="-141.9" class="st1" width="1286.9" height="1225.4"/>
</g>
<g>
	<g>
		<g>
			<path class="st2" d="M50,14.5c-1,0-1.8-0.8-1.8-1.8V6.5c0-1,0.8-1.8,1.8-1.8s1.8,0.8,1.8,1.8v6.3C51.8,13.7,51,14.5,50,14.5z"/>
		</g>
	</g>
	<g>
		<g>
			<path class="st2" d="M23.3,25.5c-0.4,0-0.9-0.2-1.2-0.5l-4.4-4.4c-0.7-0.7-0.7-1.8,0-2.5s1.8-0.7,2.5,0l4.4,4.4
				c0.7,0.7,0.7,1.8,0,2.5C24.2,25.4,23.7,25.5,23.3,25.5z"/>
		</g>
	</g>
	<g>
		<path class="st2" d="M94,52.3h-6.3c-1,0-1.8-0.8-1.8-1.8s0.8-1.8,1.8-1.8H94c1,0,1.8,0.8,1.8,1.8S95,52.3,94,52.3z"/>
	</g>
	<g>
		<path class="st2" d="M12.2,52.3H6c-1,0-1.8-0.8-1.8-1.8S5,48.8,6,48.8h6.3c1,0,1.8,0.8,1.8,1.8S13.2,52.3,12.2,52.3z"/>
	</g>
	<path class="st2" d="M76.7,25.5c-0.4,0-0.9-0.2-1.2-0.5c-0.7-0.7-0.7-1.8,0-2.5l4.4-4.4c0.7-0.7,1.8-0.7,2.5,0s0.7,1.8,0,2.5
		L77.9,25C77.6,25.4,77.2,25.5,76.7,25.5z"/>
	<path class="st2" d="M40.2,91c0,0,2.5,0,5.8,0v2.5h8V91c3.2,0,5.8,0,5.8,0c0-2.7-0.1-5.5-0.1-8.2H40.3C40.3,86.8,40.1,91,40.2,91z"
		/>
	<g>
		<rect x="47.5" y="57.6" class="st2" width="5" height="23"/>
	</g>
	<g>
		<path class="st2" d="M42.7,51.2c-1,0-1.8,0.8-1.8,1.7c0,0.9,0.8,1.7,1.8,1.7v0h0v0h1.8v-1.8C44.4,51.9,43.7,51.2,42.7,51.2z"/>
	</g>
	<g>
		<path class="st2" d="M59.1,52.9c0-0.9-0.8-1.7-1.8-1.7c-1,0-1.8,0.8-1.8,1.7h0l0,0h0v1.7h2.1C58.4,54.5,59.1,53.8,59.1,52.9z"/>
	</g>
	<g>
		<path class="st2" d="M50,23.2c-15,0-27.1,12.2-27.1,27.1c0,6.1,2.1,12.1,5.9,16.9c1.9,2.4,4.2,4.4,6.8,6.1c1,0.6,3.3,1.2,4.1,2.1
			c0.4,0.4,0.5,2.5,0.6,5h4.3V57.6h-1.8v0h0v0c-2.7,0-4.8-2.1-4.8-4.7c0-2.6,2.2-4.7,4.8-4.7c2.5,0,4.5,1.8,4.8,4.1h0v0.1
			c0,0.2,0,0.3,0,0.5h0l0,0h0v1.7h5v-1.7h0c0,0,0,0,0,0v-0.2h0c0.1-2.5,2.2-4.5,4.8-4.5c2.7,0,4.8,2.1,4.8,4.7
			c0,2.5-1.9,4.4-4.4,4.7v0h-0.2c-0.1,0-0.1,0-0.2,0v0h0v0h-1.8v22.9h4.2c0-1.1,0-2.2,0-3.3c0-2.4,3.4-3.1,5-4.2
			c2.5-1.7,4.7-3.7,6.6-6c3.8-4.7,5.9-10.6,5.9-16.6C77.1,35.4,65,23.2,50,23.2z"/>
	</g>
</g>
</svg>
